<!-- Simple SVG icon placeholder for the extension -->
<svg width="128" height="128" viewBox="0 0 128 128" xmlns="http://www.w3.org/2000/svg">
  <defs>
    <linearGradient id="grad1" x1="0%" y1="0%" x2="100%" y2="100%">
      <stop offset="0%" style="stop-color:#0969da;stop-opacity:1" />
      <stop offset="100%" style="stop-color:#0550ae;stop-opacity:1" />
    </linearGradient>
  </defs>
  
  <!-- Background circle -->
  <circle cx="64" cy="64" r="60" fill="url(#grad1)" stroke="#fff" stroke-width="4"/>
  
  <!-- GitHub icon -->
  <path d="M64 20C35.91 20 13.33 42.58 13.33 70.67c0 22.35 14.49 41.31 34.61 47.99 2.53.47 3.46-1.1 3.46-2.44 0-1.21-.04-4.42-.07-8.68-14.11 3.07-17.08-6.8-17.08-6.8-2.3-5.84-5.62-7.4-5.62-7.4-4.59-3.14.35-3.07.35-3.07 5.08.36 7.75 5.21 7.75 5.21 4.51 7.73 11.83 5.5 14.71 4.2.46-3.27 1.76-5.5 3.21-6.76-11.23-1.28-23.04-5.61-23.04-24.97 0-5.52 1.97-10.03 5.21-13.56-.52-1.28-2.26-6.43.49-13.4 0 0 4.25-1.36 13.93 5.19 4.04-1.12 8.37-1.68 12.67-1.7 4.3.02 8.63.58 12.68 1.7 9.67-6.55 13.92-5.19 13.92-5.19 2.75 6.97 1.01 12.12.49 13.4 3.25 3.53 5.2 8.04 5.2 13.56 0 19.4-11.83 23.68-23.1 24.93 1.82 1.56 3.44 4.65 3.44 9.37 0 6.76-.06 12.21-.06 13.87 0 1.35.91 2.93 3.48 2.44 20.11-6.69 34.58-25.64 34.58-47.98C114.67 42.58 92.09 20 64 20z" fill="white"/>
  
  <!-- AI symbol -->
  <circle cx="90" cy="38" r="12" fill="#28a745"/>
  <path d="M84 38h12M90 32v12" stroke="white" stroke-width="2"/>
</svg>
